<?xml version="1.0" encoding="iso-8859-1" standalone="no"?>
<!DOCTYPE svg PUBLIC "-//W3C//DTD SVG 20010904//EN" 
  "http://www.w3.org/TR/2001/REC-SVG-20010904/DTD/svg10.dtd" [ 
<!ENTITY ff "font-family:">
<!ENTITY fs "font-size:">
<!ENTITY fw "font-weight:">
<!ENTITY fst "font-style:">
<!ENTITY sw "stroke-width:">
<!ENTITY as "text-anchor:start;">
<!ENTITY am "text-anchor:middle;">
<!ENTITY ae "text-anchor:end;">
]>
<!-- Generated by ploticus (http://ploticus.sourceforge.net/)
Title: ploticus-graphic
SVG Driver by B.Traill
-->
<svg xmlns="http://www.w3.org/2000/svg" 
  viewBox="0 0 392.80 197.84"      
  xmlns:xlink="http://www.w3.org/1999/xlink"
>
<g transform="translate(-23.20,-273.60)" >                                                       

<g style="fill:#000000;stroke:#000000;&ff;Helvetica;">
<g style="&sw;0.6;&fs;8pt;&ae;">
<text x="61.20" y="435.00" stroke="none">0</text>
</g><g style="&sw;0.5;&fs;8pt;&ae;">
<path d="M66.96 432l5.04 0" fill="none"/>
<text x="61.20" y="402.27" stroke="none">5000</text>
<path d="M66.96 399.3l5.04 0" fill="none"/>
<text x="61.20" y="369.55" stroke="none">10000</text>
<path d="M66.96 366.5l5.04 0" fill="none"/>
<text x="61.20" y="336.82" stroke="none">15000</text>
<path d="M66.96 333.8l5.04 0" fill="none"/>
<text x="61.20" y="304.09" stroke="none">20000</text>
<path d="M66.96 301.1l5.04 0" fill="none"/>
<path d="M72 432l0 -144" fill="none"/>
</g><g style="&sw;0.5;&fs;8pt;&am;">
<text x="72.00" y="447.04" stroke="none">A</text>
<text x="72.00" y="457.04" stroke="none">2016</text>
<path d="M72 437l0 -5.04" fill="none"/>
<text x="103.76" y="447.04" stroke="none">M</text>
<path d="M103.8 437l0 -5.04" fill="none"/>
<text x="136.59" y="447.04" stroke="none">J</text>
<path d="M136.6 437l0 -5.04" fill="none"/>
<text x="168.35" y="447.04" stroke="none">J</text>
<path d="M168.4 437l0 -5.04" fill="none"/>
<text x="201.18" y="447.04" stroke="none">A</text>
<path d="M201.2 437l0 -5.04" fill="none"/>
<text x="234.00" y="447.04" stroke="none">S</text>
<path d="M234 437l0 -5.04" fill="none"/>
<text x="265.76" y="447.04" stroke="none">O</text>
<path d="M265.8 437l0 -5.04" fill="none"/>
<text x="298.59" y="447.04" stroke="none">N</text>
<path d="M298.6 437l0 -5.04" fill="none"/>
<text x="330.35" y="447.04" stroke="none">D</text>
<path d="M330.4 437l0 -5.04" fill="none"/>
<text x="363.18" y="447.04" stroke="none">J</text>
<text x="363.18" y="457.04" stroke="none">2017</text>
<path d="M363.2 437l0 -5.04" fill="none"/>
<text x="396.00" y="447.04" stroke="none">F</text>
<path d="M396 437l0 -5.04" fill="none"/>
<path d="M72 432l324 0" fill="none"/>
<path d="M97.73 432l0 -0.8705l3.6 0l0 0.8705z" fill="#ff0000" stroke="#ff0000"/>
</g><g style="fill:#ff0000;stroke:#ff0000;&sw;0.5;&fs;8pt;&am;">
<path d="M105.1 432l0 -19.49l3.6 0l0 19.49z" fill="#ff0000" stroke="#ff0000"/>
<path d="M112.6 432l0 -46.09l3.6 0l0 46.09z" fill="#ff0000" stroke="#ff0000"/>
<path d="M120 432l0 -80.76l3.6 0l0 80.76z" fill="#ff0000" stroke="#ff0000"/>
<path d="M127.4 432l0 -71.48l3.6 0l0 71.48z" fill="#ff0000" stroke="#ff0000"/>
<path d="M134.8 432l0 -67.27l3.6 0l0 67.27z" fill="#ff0000" stroke="#ff0000"/>
<path d="M142.2 432l0 -54.06l3.6 0l0 54.06z" fill="#ff0000" stroke="#ff0000"/>
<path d="M149.6 432l0 -45.63l3.6 0l0 45.63z" fill="#ff0000" stroke="#ff0000"/>
<path d="M157 432l0 -34.82l3.6 0l0 34.82z" fill="#ff0000" stroke="#ff0000"/>
<path d="M164.4 432l0 -37.72l3.6 0l0 37.72z" fill="#ff0000" stroke="#ff0000"/>
<path d="M171.8 432l0 -27.73l3.6 0l0 27.73z" fill="#ff0000" stroke="#ff0000"/>
<path d="M179.3 432l0 -24.75l3.6 0l0 24.75z" fill="#ff0000" stroke="#ff0000"/>
<path d="M186.7 432l0 -16.2l3.6 0l0 16.2z" fill="#ff0000" stroke="#ff0000"/>
<path d="M194.1 432l0 -17.16l3.6 0l0 17.16z" fill="#ff0000" stroke="#ff0000"/>
<path d="M201.5 432l0 -21.76l3.6 0l0 21.76z" fill="#ff0000" stroke="#ff0000"/>
<path d="M208.9 432l0 -17.88l3.6 0l0 17.88z" fill="#ff0000" stroke="#ff0000"/>
<path d="M216.3 432l0 -19.47l3.6 0l0 19.47z" fill="#ff0000" stroke="#ff0000"/>
<path d="M223.7 432l0 -15.71l3.6 0l0 15.71z" fill="#ff0000" stroke="#ff0000"/>
<path d="M231.1 432l0 -24.32l3.6 0l0 24.32z" fill="#ff0000" stroke="#ff0000"/>
<path d="M238.6 432l0 -29.92l3.6 0l0 29.92z" fill="#ff0000" stroke="#ff0000"/>
<path d="M246 432l0 -32.98l3.6 0l0 32.98z" fill="#ff0000" stroke="#ff0000"/>
<path d="M253.4 432l0 -26.15l3.6 0l0 26.15z" fill="#ff0000" stroke="#ff0000"/>
<path d="M260.8 432l0 -24.01l3.6 0l0 24.01z" fill="#ff0000" stroke="#ff0000"/>
<path d="M268.2 432l0 -23.17l3.6 0l0 23.17z" fill="#ff0000" stroke="#ff0000"/>
<path d="M275.6 432l0 -22.03l3.6 0l0 22.03z" fill="#ff0000" stroke="#ff0000"/>
<path d="M283 432l0 -22.46l3.6 0l0 22.46z" fill="#ff0000" stroke="#ff0000"/>
<path d="M290.4 432l0 -16.27l3.6 0l0 16.27z" fill="#ff0000" stroke="#ff0000"/>
<path d="M297.8 432l0 -22.69l3.6 0l0 22.69z" fill="#ff0000" stroke="#ff0000"/>
<path d="M305.3 432l0 -27.67l3.6 0l0 27.67z" fill="#ff0000" stroke="#ff0000"/>
<path d="M312.7 432l0 -28.82l3.6 0l0 28.82z" fill="#ff0000" stroke="#ff0000"/>
<path d="M320.1 432l0 -21.66l3.6 0l0 21.66z" fill="#ff0000" stroke="#ff0000"/>
<path d="M327.5 432l0 -21.94l3.6 0l0 21.94z" fill="#ff0000" stroke="#ff0000"/>
<path d="M334.9 432l0 -23.04l3.6 0l0 23.04z" fill="#ff0000" stroke="#ff0000"/>
<path d="M342.3 432l0 -14.44l3.6 0l0 14.44z" fill="#ff0000" stroke="#ff0000"/>
<path d="M349.7 432l0 -30.91l3.6 0l0 30.91z" fill="#ff0000" stroke="#ff0000"/>
<path d="M357.1 432l0 -130.5l3.6 0l0 130.5z" fill="#ff0000" stroke="#ff0000"/>
<path d="M364.6 432l0 -82.76l3.6 0l0 82.76z" fill="#ff0000" stroke="#ff0000"/>
</g></g>
</g>
</svg>
